<svg width="12" height="12" viewBox="0 0 12 12" xmlns="http://www.w3.org/2000/svg"><path d="M7.5 2.967H3a1.13 1.13 0 0 0-1.12 1.028l-.005.11v5.307c0 .592.446 1.078 1.017 1.133L3 10.55h4.5a1.13 1.13 0 0 0 1.12-1.028l.005-.11V4.104c0-.591-.446-1.077-1.017-1.132L7.5 2.967Zm2.25 4.26a1.14 1.14 0 0 0 .37-.738l.005-.11V2.588c0-.592-.446-1.078-1.017-1.133L9 1.45H6c-.333 0-.632.146-.838.38H7.5c1.243 0 2.25 1.018 2.25 2.274v3.123Zm0 2.185c0 1.257-1.007 2.275-2.25 2.275H3c-1.243 0-2.25-1.018-2.25-2.274v-5.31A2.262 2.262 0 0 1 3 1.83h.878A2.253 2.253 0 0 1 6 .313h3c1.243 0 2.25 1.018 2.25 2.274V6.38c0 .99-.626 1.833-1.5 2.146v.887Z" fill="#B5BEC5"/></svg>