<svg width="24" height="24" viewBox="0 0 24 24" xmlns="http://www.w3.org/2000/svg"><g fill="none" fill-rule="evenodd"><path d="M7.5 5h9a4 4 0 0 1 4 4v8a4 4 0 0 1-4 4h-9a4 4 0 0 1-4-4V9a4 4 0 0 1 4-4Z" stroke="#B5BEC5" stroke-width="2" stroke-linejoin="round"/><path d="M8.5 2a1 1 0 0 1 1 1v3.5a1 1 0 1 1-2 0V3a1 1 0 0 1 1-1Z" fill="#B5BEC5"/><rect fill="#B5BEC5" x="7" y="10.5" width="10" height="2" rx="1"/><rect fill="#B5BEC5" x="7" y="15" width="9" height="2" rx="1"/><path d="M15.5 2a1 1 0 0 1 1 1v3.5a1 1 0 0 1-2 0V3a1 1 0 0 1 1-1Z" fill="#B5BEC5"/></g></svg>