<svg width="56" height="56" viewBox="0 0 56 56" xmlns="http://www.w3.org/2000/svg"><g stroke="#67C23A" fill="none" fill-rule="evenodd"><circle stroke-width="3" cx="28" cy="28" r="26.5"/><path d="M35.949 19.93a2.105 2.105 0 0 1 2.079.55 2.166 2.166 0 0 1-.024 3.06v-.001l-11.86 11.982a2.11 2.11 0 0 1-3.008 0l-5.19-5.26a2.152 2.152 0 0 1-.596-1.509 2.151 2.151 0 0 1 .622-1.499 2.11 2.11 0 0 1 2.984-.024l3.685 3.737 10.352-10.46c.267-.28.599-.475.956-.576Z" stroke-width=".3" fill="#67C23A"/></g></svg>