<svg width="72" height="72" viewBox="0 0 72 72" xmlns="http://www.w3.org/2000/svg"><g fill="#F56C6C"><path d="M57.938 40.634a1.954 1.954 0 0 1-1.484-.682 26.155 26.155 0 0 0-19.821-9.232 1.943 1.943 0 0 1 .007-3.888h.007a30.054 30.054 0 0 1 22.767 10.595 1.933 1.933 0 0 1-.225 2.736 1.89 1.89 0 0 1-1.252.47Zm-42.455-.5a1.945 1.945 0 0 1-1.455-3.234c3.79-4.254 8.725-7.334 14.28-8.909 1.033-.28 2.11.31 2.397 1.343a1.941 1.941 0 0 1-1.342 2.398c-4.845 1.371-9.148 4.05-12.439 7.748a1.887 1.887 0 0 1-1.441.654Z"/><path d="M15.25 40.402c-.45 0-.9-.155-1.265-.472a1.94 1.94 0 0 1-.204-2.742l.253-.288a1.938 1.938 0 0 1 2.743-.155c.801.718.871 1.94.154 2.742l-.21.24a1.91 1.91 0 0 1-1.47.675Zm9.753 7.446a1.946 1.946 0 0 1-1.463-3.22 17.228 17.228 0 0 1 13.001-5.935c1.041 0 2.103.105 3.242.323a1.937 1.937 0 0 1 1.54 2.272 1.933 1.933 0 0 1-2.271 1.54 13.427 13.427 0 0 0-2.504-.254 13.321 13.321 0 0 0-10.068 4.592 1.938 1.938 0 0 1-1.477.682Zm43.622-13.57a1.954 1.954 0 0 1-1.484-.683 41.02 41.02 0 0 0-40.19-13.507 1.934 1.934 0 0 1-2.314-1.476 1.939 1.939 0 0 1 1.477-2.314 45.153 45.153 0 0 1 9.731-1.075c13.212 0 25.7 5.78 34.257 15.848a1.933 1.933 0 0 1-.225 2.735 1.877 1.877 0 0 1-1.252.471Zm-65.25-.352a1.946 1.946 0 0 1-1.462-3.22c4.584-5.274 10.504-9.479 17.12-12.158a1.945 1.945 0 0 1 1.456 3.607c-6.054 2.447-11.468 6.286-15.652 11.103a1.92 1.92 0 0 1-1.462.668ZM37.202 64.82a6.074 6.074 0 0 1-6.068-6.068 6.074 6.074 0 0 1 6.068-6.068 6.074 6.074 0 0 1 6.068 6.068c.007 3.347-2.72 6.068-6.068 6.068Zm0-8.255a2.19 2.19 0 0 0-2.186 2.187 2.19 2.19 0 0 0 2.186 2.187 2.19 2.19 0 0 0 2.187-2.187 2.19 2.19 0 0 0-2.187-2.187Z"/><path d="M54.738 57.495a5.15 5.15 0 0 1-3.712-1.59L38.01 42.272a1.942 1.942 0 0 1 .063-2.742 1.936 1.936 0 0 1 2.742.063L53.831 53.22c.464.485 1.287.506 1.772.042.5-.478.52-1.273.042-1.772L35.234 30.122a1.944 1.944 0 1 1 2.813-2.686l20.41 21.368c1.956 2.053 1.885 5.308-.168 7.263a5.112 5.112 0 0 1-3.55 1.428Z"/><path d="M39.41 42.877a1.954 1.954 0 0 1-1.406-.598L27.436 31.212a1.944 1.944 0 1 1 2.813-2.686l10.567 11.067a1.95 1.95 0 0 1-.063 2.75 1.96 1.96 0 0 1-1.343.534Z"/><path d="M28.842 31.81a1.934 1.934 0 0 1-1.406-.605l-9.084-9.507a1.942 1.942 0 0 1 .063-2.742 1.936 1.936 0 0 1 2.742.064l9.084 9.513c.739.773.71 2.004-.063 2.742a1.9 1.9 0 0 1-1.336.534Zm7.798-1.09a1.934 1.934 0 0 1-1.406-.605L25.13 19.533a1.942 1.942 0 0 1 .063-2.742 1.936 1.936 0 0 1 2.742.063L38.04 27.436c.738.773.71 2.004-.063 2.742a1.877 1.877 0 0 1-1.336.542Z"/><path d="M19.758 22.296a1.954 1.954 0 0 1-1.406-.598l-5.57-5.835a5.147 5.147 0 0 1 .17-7.264 5.185 5.185 0 0 1 3.663-1.42 5.106 5.106 0 0 1 3.6 1.589l7.727 8.086a1.95 1.95 0 0 1-.063 2.75 1.95 1.95 0 0 1-2.75-.064l-7.727-8.086a1.225 1.225 0 0 0-.879-.387 1.122 1.122 0 0 0-.893.345 1.255 1.255 0 0 0-.042 1.772l5.569 5.836a1.95 1.95 0 0 1-.063 2.749 1.939 1.939 0 0 1-1.336.527Z"/></g></svg>