<svg width="24" height="24" viewBox="0 0 24 24" xmlns="http://www.w3.org/2000/svg"><path d="M12 6a.75.75 0 1 1 0 1.5H7.75a.25.25 0 0 0-.243.193L7.5 7.75v8a.25.25 0 0 0 .193.243L7.75 16h7a.25.25 0 0 0 .243-.193L15 15.75V13.5a.75.75 0 1 1 1.5 0v2.25a1.75 1.75 0 0 1-1.606 1.744l-.144.006h-7a1.75 1.75 0 0 1-1.744-1.606L6 15.75v-8a1.75 1.75 0 0 1 1.606-1.744L7.75 6H12Zm5.234.177a.75.75 0 0 1 .154.968l-.065.09-5.5 6.5a.75.75 0 0 1-1.21-.88l.064-.09 5.5-6.5a.75.75 0 0 1 1.057-.088Z" fill="#3A51E0"/></svg>