<svg width="16" height="16" viewBox="0 0 16 16" xmlns="http://www.w3.org/2000/svg"><defs><filter id="a"><feColorMatrix in="SourceGraphic" values="0 0 0 0 0.004284 0 0 0 0 0.000000 0 0 0 0 0.952910 0 0 0 1.000000 0"/></filter></defs><g filter="url(#a)" fill="none" fill-rule="evenodd"><path d="M14.664 2.949a.452.452 0 0 0-.555.33l-.356 1.37C12.6 2.477 10.369 1 7.796 1 4.043 1 1 4.134 1 8s3.043 7 6.796 7c3.125 0 5.75-2.175 6.544-5.133h-.046a.46.46 0 0 0-.453-.467.46.46 0 0 0-.453.467c0 .006.004.011.004.018-.77 2.427-2.983 4.182-5.596 4.182-3.253 0-5.89-2.717-5.89-6.067s2.637-6.067 5.89-6.067c2.356 0 4.384 1.429 5.325 3.489l-1.786-.493a.451.451 0 0 0-.555.33.468.468 0 0 0 .32.571l2.626.725a.452.452 0 0 0 .555-.33l.024-.092h.035l-.02-.061.664-2.552a.468.468 0 0 0-.32-.571" stroke="#FFF" stroke-width=".5" fill="#FFF" stroke-linecap="round" stroke-linejoin="round"/></g></svg>