<svg width="14" height="14" viewBox="0 0 14 14" xmlns="http://www.w3.org/2000/svg"><path d="M10.5.438a2.625 2.625 0 0 1 2.625 2.624v4.376c0 1.142-.73 2.115-1.75 2.475v1.024a2.625 2.625 0 0 1-2.625 2.626H3.5a2.625 2.625 0 0 1-2.625-2.626V4.814A2.625 2.625 0 0 1 3.5 2.188h5.25a2.625 2.625 0 0 1 2.625 2.624v3.603a1.31 1.31 0 0 0 .431-.851l.007-.127V3.063c0-.682-.521-1.242-1.187-1.306L10.5 1.75H7a1.31 1.31 0 0 0-.978.437H4.524A2.626 2.626 0 0 1 7 .437h3.5ZM8.75 3.5H3.5c-.682 0-1.243.52-1.306 1.186l-.006.127v6.125c0 .682.52 1.242 1.186 1.306l.126.006h5.25c.682 0 1.243-.52 1.306-1.186l.007-.127V4.814c0-.683-.521-1.243-1.187-1.307L8.75 3.5ZM6.125 5.25c.362 0 .656.294.656.656v1.312h1.313a.656.656 0 1 1 0 1.313H6.78v1.313a.656.656 0 1 1-1.312 0V8.53H4.156a.656.656 0 1 1 0-1.312l1.312-.001V5.906c0-.362.295-.656.657-.656Z" fill="#111010"/></svg>