<svg width="56" height="56" viewBox="0 0 56 56" xmlns="http://www.w3.org/2000/svg"><g fill="none" fill-rule="evenodd"><circle stroke="#FAAD14" stroke-width="3" cx="28" cy="28" r="26.5"/><circle fill="#FAAD14" cx="28" cy="41" r="3"/><path d="M29.9 32.866v-.501c0-.98.208-1.868.622-2.667.362-.721.905-1.39 1.629-2.01 1.914-1.622 3.039-2.653 3.375-3.09.983-1.263 1.474-2.873 1.474-4.83 0-2.37-.776-4.264-2.328-5.681C33.095 12.696 31.012 12 28.427 12c-2.897 0-5.186.85-6.867 2.55-1.498 1.448-2.339 3.372-2.522 5.772a8.06 8.06 0 0 0-.013.347 2.09 2.09 0 0 0 2.09 2.143c1.16 0 2.11-.924 2.141-2.085.006-.22.013-.37.02-.447.118-1.247.451-2.255 1-3.025.827-1.107 2.133-1.661 3.918-1.661 1.422 0 2.534.4 3.336 1.198.75.798 1.125 1.88 1.125 3.246 0 1.03-.349 1.996-1.047 2.898-.362.36-1.177 1.12-2.444 2.28-1.267 1.133-2.173 2.228-2.716 3.284-.543 1.108-.814 2.396-.814 3.865v.501a2.134 2.134 0 1 0 4.267 0Z" fill="#FAAD14"/></g></svg>