<svg width="180" height="140" viewBox="0 0 180 140" xmlns="http://www.w3.org/2000/svg" xmlns:xlink="http://www.w3.org/1999/xlink"><defs><circle id="empty-a" cx="16" cy="16" r="16"/></defs><g fill="none" fill-rule="evenodd"><circle fill="#FFCF00" cx="141" cy="42" r="38"/><g transform="translate(.5 25)"><mask id="empty-b" fill="#fff"><use xlink:href="#empty-a"/></mask><use fill="#06003B" xlink:href="#empty-a"/><g mask="url(#empty-b)" fill="#FFF"><g transform="translate(-25 24)"><circle cx="31.5" cy="1.5" r="1.5"/><circle cx="41.5" cy="1.5" r="1.5"/><circle cx="51.5" cy="1.5" r="1.5"/><circle cx="61.5" cy="1.5" r="1.5"/><circle cx="71.5" cy="1.5" r="1.5"/></g></g><g mask="url(#empty-b)" fill="#FFF"><g transform="translate(-25 31)"><circle cx="31.5" cy="1.5" r="1.5"/><circle cx="41.5" cy="1.5" r="1.5"/><circle cx="51.5" cy="1.5" r="1.5"/><circle cx="61.5" cy="1.5" r="1.5"/><circle cx="71.5" cy="1.5" r="1.5"/></g></g><g mask="url(#empty-b)" fill="#FFF"><g transform="translate(-25 17)"><circle cx="31.5" cy="1.5" r="1.5"/><circle cx="41.5" cy="1.5" r="1.5"/><circle cx="51.5" cy="1.5" r="1.5"/><circle cx="61.5" cy="1.5" r="1.5"/><circle cx="71.5" cy="1.5" r="1.5"/></g></g><g mask="url(#empty-b)" fill="#FFF"><g transform="translate(-25 9)"><circle cx="31.5" cy="1.5" r="1.5"/><circle cx="41.5" cy="1.5" r="1.5"/><circle cx="51.5" cy="1.5" r="1.5"/><circle cx="61.5" cy="1.5" r="1.5"/><circle cx="71.5" cy="1.5" r="1.5"/></g></g><g mask="url(#empty-b)" fill="#FFF"><g transform="translate(-25 1)"><circle cx="31.5" cy="1.5" r="1.5"/><circle cx="41.5" cy="1.5" r="1.5"/><circle cx="51.5" cy="1.5" r="1.5"/><circle cx="61.5" cy="1.5" r="1.5"/><circle cx="71.5" cy="1.5" r="1.5"/></g></g></g><path d="m123.32 50.5 16.99 43.982-8.476 7.17-10.39-11.578.749-7.574H52.947l.56 5.067-10.654 14.06-7.667-6.03 16.24-44.818 71.894-.279Z" stroke="#06003B" stroke-width="2" fill="#FFF"/><path d="m123.186 82.174 12.035 33.678H39.775l11.37-33.678h72.04Z" stroke="#06003B" stroke-width="2" fill="#FFF"/><path d="m99.668 90.899 36.132.002c1.38 0 2.63.56 3.536 1.464a4.984 4.984 0 0 1 1.464 3.536v28.907l-105.773.026L35 95.901c0-1.38.56-2.63 1.464-3.536A4.984 4.984 0 0 1 40 90.901l36.131-.002.01.233a11.737 11.737 0 0 0 3.196 7.372l.233.24a11.743 11.743 0 0 0 8.33 3.45c3.253 0 6.198-1.318 8.33-3.45a11.742 11.742 0 0 0 3.429-7.612l.009-.233Z" stroke="#06003B" stroke-width="2" fill="#FFF"/><path stroke="#06003B" stroke-width="2" stroke-linecap="round" stroke-linejoin="round" d="M51.5 50.5v31m71.5-31V82"/><rect fill="#3A51E0" transform="rotate(-30 29.5 120.5)" x="17" y="108" width="25" height="25" rx="6"/></g></svg>